HIERARCHY
ROOT Hips
{
	OFFSET 0.000000 0.000000 0.000000
	CHANNELS 6 Xposition Yposition Zposition Zrotation Yrotation Xrotation 
	JOINT LHipJoint
	{
		OFFSET 0.000000 0.000000 0.000000
		CHANNELS 3 Zrotation Yrotation Xrotation
		JOINT LeftUpLeg
		{
			OFFSET 1.363060 -1.794630 0.839290
			CHANNELS 3 Zrotation Yrotation Xrotation
			JOINT LeftLeg
			{
				OFFSET 2.448110 -6.726130 0.000000
				CHANNELS 3 Zrotation Yrotation Xrotation
				JOINT LeftFoot
				{
					OFFSET 2.562200 -7.039590 0.000000
					CHANNELS 3 Zrotation Yrotation Xrotation
					JOINT LeftToeBase
					{
						OFFSET 0.157640 -0.433110 2.322550
						CHANNELS 3 Zrotation Yrotation Xrotation
						End Site
						{
							OFFSET 0.000000 0.000000 0.000000
						}
					}
				}
			}
		}
	}
	JOINT RHipJoint
	{
		OFFSET 0.000000 0.000000 0.000000
		CHANNELS 3 Zrotation Yrotation Xrotation
		JOINT RightUpLeg
		{
			OFFSET -1.305520 -1.794630 0.839290
			CHANNELS 3 Zrotation Yrotation Xrotation
			JOINT RightLeg
			{
				OFFSET -2.542530 -6.985550 0.000000
				CHANNELS 3 Zrotation Yrotation Xrotation
				JOINT RightFoot
				{
					OFFSET -2.568260 -7.056230 0.000000
					CHANNELS 3 Zrotation Yrotation Xrotation
					JOINT RightToeBase
					{
						OFFSET -0.164730 -0.452590 2.363150
						CHANNELS 3 Zrotation Yrotation Xrotation
						End Site
						{
							OFFSET 0.000000 0.000000 0.000000
						}
					}
				}
			}
		}
	}
}
MOTION
Frames: 24
Frame Time: 0.008333
24.786653 14.877636 2.590454 -45.632660 -83.783755 85.215629 -7.798085 -2.352887 2.981526 -9.081700 -9.215760 -93.738947 -0.947104 4.142001 49.613496 2.129455 8.470880 -2.091220 1.933899 -0.000000 -10.034901 10.586429 -3.245038 -4.600039 14.620523 -8.939679 -19.752844 3.051269 -2.714776 41.227054 0.014148 4.683782 -14.241986 -0.285200 -0.000000 -77.723700
24.602391 14.859612 2.602529 -43.602545 -83.665883 82.963328 -7.789143 -2.484731 2.767574 -9.227716 -9.115475 -93.710718 -0.782328 4.315312 51.845847 2.112580 8.217796 -3.292647 1.643400 -0.000000 -9.377500 10.661500 -3.361984 -4.638736 14.472089 -9.283870 -19.634140 2.822733 -2.866586 42.236831 0.041837 4.295687 -12.340720 -0.193200 -0.000000 -79.274300
24.420378 14.843319 2.615400 -41.856610 -83.556708 80.994484 -7.787048 -2.602211 2.567122 -9.391167 -9.002569 -93.572808 -0.646509 4.464037 53.904959 2.107448 7.979056 -4.708005 1.335500 0.000000 -8.961801 10.741484 -3.469309 -4.688723 14.332157 -9.677547 -19.646071 2.567937 -3.029844 43.398354 0.055654 3.857899 -10.212637 -0.101600 0.000001 -80.753300
24.240734 14.828560 2.629092 -40.433959 -83.453460 79.360328 -7.790021 -2.703914 2.384577 -9.557707 -8.874451 -93.356729 -0.534256 4.591651 55.789248 2.114737 7.774423 -6.232544 1.029000 0.000000 -8.785201 10.829128 -3.562574 -4.742153 14.208572 -10.096558 -19.803378 2.286231 -3.199360 44.704942 0.049602 3.359594 -7.842376 -0.014900 0.000000 -82.050700
24.063667 14.815234 2.643507 -39.339493 -83.354175 78.074792 -7.795827 -2.790063 2.222295 -9.716961 -8.730578 -93.094108 -0.439810 4.701507 57.504006 2.133795 7.616477 -7.770256 0.737200 0.000000 -8.830400 10.925092 -3.636734 -4.792303 14.109702 -10.514706 -20.114743 1.980503 -3.369045 46.145811 0.016401 2.787201 -5.245702 0.058100 0.000000 -82.998400
23.889377 14.803280 2.658501 -38.549805 -83.256829 77.122050 -7.802483 -2.861924 2.080848 -9.862092 -8.571374 -92.812764 -0.357730 4.796726 59.059999 2.162810 7.510667 -9.243742 0.468200 0.000000 -9.059100 11.027866 -3.687001 -4.833991 14.044547 -10.906149 -20.582114 1.657906 -3.532518 47.707192 -0.050861 2.125198 -2.478406 0.103299 0.000000 -83.385100
23.718013 14.792742 2.673924 -38.022768 -83.158979 76.464122 -7.808515 -2.921354 1.958972 -9.990501 -8.398231 -92.534386 -0.283545 4.880151 60.471651 2.198910 7.454921 -10.599428 0.226100 0.000000 -9.417200 11.134054 -3.709670 -4.864354 14.021560 -11.248433 -21.200778 1.329345 -3.684475 49.375276 -0.156638 1.356419 0.359229 0.100800 -0.000001 -82.988700
23.549890 14.783703 2.689631 -37.708140 -83.058590 76.050322 -7.813205 -2.970558 1.853767 -10.102653 -8.211969 -92.271773 -0.214129 4.954236 61.754895 2.238668 7.441087 -11.808556 0.011601 -0.000000 -9.846100 11.239106 -3.703050 -4.883273 14.047599 -11.525980 -21.961331 1.007629 -3.822216 51.139362 -0.300962 0.463590 3.125308 0.026900 -0.000000 -81.619000
23.385380 14.776307 2.705495 -37.555246 -82.954032 75.826406 -7.816903 -3.011713 1.761417 -10.200912 -8.012631 -92.028592 -0.147978 5.020968 62.924914 2.278587 7.456184 -12.866321 -0.177000 -0.000000 -10.295800 11.337975 -3.668375 -4.893116 14.127917 -11.731670 -22.851513 0.704652 -3.946510 52.992523 -0.478875 -0.569523 5.647588 -0.140700 -0.000000 -79.168900
23.224862 14.770693 2.721430 -37.514168 -82.844890 75.736083 -7.820264 -3.046679 1.677469 -10.289872 -7.800380 -91.800308 -0.085000 5.081822 63.995424 2.315729 7.485529 -13.786776 -0.343099 -0.000001 -10.732900 11.426876 -3.609298 -4.898502 14.263066 -11.868942 -23.859114 0.428420 -4.061892 54.932202 -0.681545 -1.753433 7.747852 -0.414700 0.000000 -75.656800
23.068406 14.766978 2.737470 -37.550965 -82.730805 75.738624 -7.824802 -3.077047 1.597597 -10.373519 -7.573896 -91.576118 -0.026313 5.137750 64.976567 2.347910 7.514078 -14.597620 -0.491200 0.000000 -11.143600 11.502735 -3.531492 -4.904639 14.452589 -11.946170 -24.972348 0.181742 -4.175059 56.955825 -0.898838 -3.088602 9.264557 -0.789700 0.000000 -71.238500
22.916417 14.765290 2.753650 -37.650234 -82.612226 75.808695 -7.831716 -3.104237 1.517416 -10.455491 -7.330709 -91.341382 0.026297 5.189237 65.875662 2.374013 7.529300 -15.333925 -0.626500 0.000000 -11.529400 11.564095 -3.440677 -4.916271 14.693200 -11.973222 -26.180101 -0.037435 -4.293241 59.058730 -1.121960 -4.559190 10.077964 -1.236100 -0.000000 -66.177500
22.768978 14.765616 2.770116 -37.811763 -82.489389 75.941292 -7.841860 -3.129115 1.433366 -10.537635 -7.068172 -91.082083 0.070805 5.236478 66.697762 2.393863 7.521792 -16.031829 -0.754099 0.000000 -11.903399 11.611177 -3.341879 -4.936390 14.980583 -11.957599 -27.473101 -0.233746 -4.422276 61.232816 -1.344622 -6.127789 10.119260 -1.699600 -0.000000 -60.772200
22.625927 14.767923 2.787013 -38.056618 -82.362202 76.150534 -7.855581 -3.152452 1.342526 -10.619920 -6.782251 -90.786440 0.105318 5.279481 67.445195 2.408025 7.485955 -16.723155 -0.878300 -0.000001 -12.284200 11.644898 -3.238504 -4.965636 15.310465 -11.900901 -28.842926 -0.412309 -4.565736 63.465882 -1.563196 -7.737509 9.373524 -2.107700 -0.000000 -55.270500
22.487472 14.772131 2.804512 -38.412041 -82.231127 76.460923 -7.872928 -3.174462 1.243132 -10.700720 -6.469083 -90.446088 0.128446 5.318193 68.119263 2.417703 7.420574 -17.431715 -1.002000 -0.000001 -12.691100 11.666945 -3.132654 -5.002492 15.677802 -11.801329 -30.281710 -0.576804 -4.724615 65.741417 -1.775528 -9.316398 7.873539 -2.382200 0.000001 -49.812299
22.353409 14.778037 2.822745 -38.903503 -82.096351 76.898735 -7.893168 -3.195028 1.134355 -10.777753 -6.126148 -90.058286 0.139478 5.352637 68.721073 2.424255 7.327422 -18.170509 -1.126700 0.000001 -13.140700 11.679768 -3.024836 -5.043821 16.076668 -11.654380 -31.784683 -0.728855 -4.897997 68.040038 -1.979872 -10.787422 5.694030 -2.454700 -0.000000 -44.429600
22.223226 14.785460 2.841793 -39.550966 -81.958232 77.483929 -7.915809 -3.214113 1.016185 -10.847964 -5.751748 -89.624539 0.138481 5.382974 69.251513 2.429043 7.210967 -18.942021 -1.252100 -0.000000 -13.640900 11.684955 -2.914522 -5.085548 16.500557 -11.454398 -33.346878 -0.868331 -5.083275 70.337015 -2.174288 -12.080948 2.950042 -2.282900 -0.000000 -39.094600
22.097083 14.794161 2.861671 -40.360736 -81.817281 78.225122 -7.939870 -3.231639 0.888946 -10.909185 -5.345634 -89.150880 0.126353 5.409696 69.713770 2.433033 7.076776 -19.738625 -1.376700 -0.000000 -14.190700 11.684164 -2.800222 -5.123320 16.942987 -11.196508 -34.965851 -0.994403 -5.277091 72.605623 -2.356055 -13.142909 -0.207219 -1.863200 -0.000000 -33.785700
21.974554 14.803953 2.882343 -41.323299 -81.673688 79.116214 -7.965162 -3.247515 0.753808 -10.959552 -4.909036 -88.645484 0.104441 5.433440 70.111259 2.436688 6.930023 -20.546611 -1.498000 -0.000000 -14.774000 11.677620 -2.680166 -5.152545 17.397772 -10.876846 -36.639075 -1.106904 -5.475209 74.814836 -2.522022 -13.944104 -3.591437 -1.235300 0.000000 -28.585100
21.855352 14.814615 2.903675 -42.413230 -81.527307 80.136332 -7.991314 -3.262219 0.611588 -10.997662 -4.444331 -88.119789 0.074657 5.455238 70.450290 2.439844 6.774986 -21.347615 -1.613100 -0.000000 -15.368801 11.665112 -2.552179 -5.169682 17.859494 -10.493375 -38.365635 -1.207729 -5.673644 76.935194 -2.668173 -14.478577 -6.997224 -0.475300 -0.000000 -23.696000
21.739219 14.825968 2.925517 -43.588384 -81.377461 81.245249 -8.018671 -3.276854 0.462818 -11.023447 -3.955902 -87.584526 0.039003 5.476230 70.738902 2.441776 6.613604 -22.125164 -1.719400 0.000000 -15.933101 11.644911 -2.414636 -5.172945 18.324271 -10.048230 -40.144539 -1.300950 -5.868985 78.939987 -2.789671 -14.759274 -10.224685 0.322300 0.000001 -19.397200
21.625786 14.838004 2.947553 -44.794947 -81.226435 82.390818 -8.047870 -3.291223 0.308895 -11.040897 -3.448619 -87.046014 -0.000788 5.497109 70.982129 2.441235 6.446833 -22.858590 -1.813400 -0.000000 -16.478500 11.615197 -2.266660 -5.159783 18.785954 -9.545484 -41.974016 -1.391869 -6.057867 80.804654 -2.881903 -14.814032 -13.104341 1.066300 -0.000000 -15.961500
21.514957 14.850482 2.969596 -45.963688 -81.073422 83.505206 -8.079881 -3.307784 0.149122 -11.050560 -2.929752 -86.511937 -0.043159 5.519070 71.191570 2.437028 6.272013 -23.543426 -1.894000 -0.000000 -16.934000 11.572933 -2.108774 -5.133109 19.243079 -8.996124 -43.851769 -1.484744 -6.239255 82.516573 -2.941110 -14.673239 -15.539972 1.692900 -0.000000 -13.437599
21.406531 14.863485 2.991350 -47.037262 -80.920952 84.530413 -8.115613 -3.326490 -0.015727 -11.057960 -2.404827 -85.982189 -0.087114 5.542198 71.370942 2.427734 6.087202 -24.167475 -1.958900 0.000000 -17.345100 11.515840 -1.942162 -5.092699 19.690113 -8.408012 -45.772225 -1.581996 -6.411342 84.061855 -2.967552 -14.379715 -17.487792 2.168000 -0.000000 -11.776800
